<?xml version="1.0" standalone="no"?>
<!DOCTYPE svg PUBLIC "-//W3C//DTD SVG 20010904//EN"
 "http://www.w3.org/TR/2001/REC-SVG-20010904/DTD/svg10.dtd">
<svg version="1.0" xmlns="http://www.w3.org/2000/svg"
 width="952.000000pt" height="963.000000pt" viewBox="0 0 952.000000 963.000000"
 preserveAspectRatio="xMidYMid meet">
<metadata>
Created by potrace 1.16, written by Peter Selinger 2001-2019
</metadata>
<g transform="translate(0.000000,963.000000) scale(0.100000,-0.100000)"
fill="#000000" stroke="none">
<path d="M3340 9170 l0 -100 -300 0 -300 0 0 -100 0 -100 -100 0 -100 0 0
-100 0 -100 -200 0 -200 0 0 -100 0 -100 -100 0 -100 0 0 -200 0 -200 100 0
100 0 0 -200 0 -200 100 0 100 0 0 -200 0 -200 100 0 100 0 0 -300 0 -300 100
0 100 0 0 -300 0 -300 -100 0 -100 0 0 100 0 100 -400 0 -400 0 0 -100 0 -100
-200 0 -200 0 0 -100 0 -100 -100 0 -100 0 0 -100 0 -100 -100 0 -100 0 0
-100 0 -100 -100 0 -100 0 0 -200 0 -200 100 0 100 0 0 -100 0 -100 100 0 100
0 0 -100 0 -100 100 0 100 0 0 -100 0 -100 300 0 300 0 0 -1300 0 -1300 200 0
200 0 0 -400 0 -400 200 0 200 0 0 -200 0 -200 500 0 500 0 0 -200 0 -200 900
0 900 0 0 200 0 200 400 0 400 0 0 200 0 200 300 0 300 0 0 400 0 400 200 0
200 0 0 900 0 900 200 0 200 0 0 100 0 100 100 0 100 0 0 100 0 100 100 0 100
0 0 100 0 100 100 0 100 0 0 100 0 100 100 0 100 0 0 100 0 100 100 0 100 0 0
400 0 400 -100 0 -100 0 0 100 0 100 -100 0 -100 0 0 100 0 100 -100 0 -100 0
0 100 0 100 -200 0 -200 0 0 100 0 100 -200 0 -200 0 0 100 0 100 -300 0 -300
0 0 200 0 200 100 0 100 0 0 500 0 500 100 0 100 0 0 400 0 400 -100 0 -100 0
0 100 0 100 -300 0 -300 0 0 100 0 100 -200 0 -200 0 0 100 0 100 -1300 0
-1300 0 0 -100z m800 -300 l0 -200 100 0 100 0 0 -400 0 -400 100 0 100 0 0
-500 0 -500 -200 0 -200 0 0 300 0 300 -100 0 -100 0 0 -300 0 -300 -100 0
-100 0 0 300 0 300 -100 0 -100 0 0 400 0 400 -100 0 -100 0 0 200 0 200 -100
0 -100 0 0 100 0 100 100 0 100 0 0 -100 0 -100 100 0 100 0 0 200 0 200 300
0 300 0 0 -200z m-200 -2700 l0 -500 200 0 200 0 0 100 0 100 -100 0 -100 0 0
400 0 400 200 0 200 0 0 -300 0 -300 -100 0 -100 0 0 -100 0 -100 300 0 300 0
0 100 0 100 300 0 300 0 0 100 0 100 900 0 900 0 0 -100 0 -100 200 0 200 0 0
-100 0 -100 200 0 200 0 0 -100 0 -100 100 0 100 0 0 -100 0 -100 100 0 100 0
0 -400 0 -400 -100 0 -100 0 0 -100 0 -100 -100 0 -100 0 0 -100 0 -100 -100
0 -100 0 0 -100 0 -100 -100 0 -100 0 0 -100 0 -100 -100 0 -100 0 0 100 0
100 100 0 100 0 0 100 0 100 100 0 100 0 0 100 0 100 100 0 100 0 0 400 0 400
-100 0 -100 0 0 100 0 100 -100 0 -100 0 0 100 0 100 -200 0 -200 0 0 100 0
100 -200 0 -200 0 0 100 0 100 -700 0 -700 0 0 -100 0 -100 -300 0 -300 0 0
-100 0 -100 -300 0 -300 0 0 -100 0 -100 -200 0 -200 0 0 -100 0 -100 -200 0
-200 0 0 -100 0 -100 -200 0 -200 0 0 -100 0 -100 300 0 300 0 0 100 0 100
200 0 200 0 0 100 0 100 300 0 300 0 0 -100 0 -100 800 0 800 0 0 -300 0 -300
300 0 300 0 0 -1300 0 -1300 -300 0 -300 0 0 -400 0 -400 -400 0 -400 0 0
-200 0 -200 -900 0 -900 0 0 200 0 200 -500 0 -500 0 0 400 0 400 -200 0 -200
0 0 1300 0 1300 200 0 200 0 0 100 0 100 200 0 200 0 0 100 0 100 -400 0 -400
0 0 -100 0 -100 -500 0 -500 0 0 100 0 100 -100 0 -100 0 0 100 0 100 -100 0
-100 0 0 200 0 200 100 0 100 0 0 100 0 100 100 0 100 0 0 100 0 100 200 0
200 0 0 100 0 100 400 0 400 0 0 -100 0 -100 100 0 100 0 0 -100 0 -100 -100
0 -100 0 0 100 0 100 -400 0 -400 0 0 -100 0 -100 -200 0 -200 0 0 -100 0
-100 -100 0 -100 0 0 -200 0 -200 100 0 100 0 0 -100 0 -100 500 0 500 0 0
100 0 100 400 0 400 0 0 100 0 100 200 0 200 0 0 100 0 100 200 0 200 0 0 100
0 100 -100 0 -100 0 0 500 0 500 100 0 100 0 0 -500z"/>
<path d="M3540 8470 l0 -200 100 0 100 0 0 -400 0 -400 100 0 100 0 0 400 0
400 -100 0 -100 0 0 200 0 200 -100 0 -100 0 0 -200z"/>
<path d="M5140 3170 l0 -1300 -500 0 -500 0 0 -200 0 -200 500 0 500 0 0 200
0 200 200 0 200 0 0 1300 0 1300 -200 0 -200 0 0 -1300z"/>
</g>
</svg>
